%TF.GenerationSoftware,KiCad,Pcbnew,7.0.2*%
%TF.CreationDate,2023-05-20T11:27:23+02:00*%
%TF.ProjectId,octostrip,6f63746f-7374-4726-9970-2e6b69636164,rev?*%
%TF.SameCoordinates,Original*%
%TF.FileFunction,Profile,NP*%
%FSLAX46Y46*%
G04 Gerber Fmt 4.6, Leading zero omitted, Abs format (unit mm)*
G04 Created by KiCad (PCBNEW 7.0.2) date 2023-05-20 11:27:23*
%MOMM*%
%LPD*%
G01*
G04 APERTURE LIST*
%TA.AperFunction,Profile*%
%ADD10C,0.100000*%
%TD*%
G04 APERTURE END LIST*
D10*
X107336000Y-151638000D02*
X107336000Y-51562000D01*
X78486000Y-151638000D02*
X107336000Y-151638000D01*
X78486000Y-146050000D02*
X78486000Y-151638000D01*
X84074000Y-146050000D02*
X78486000Y-146050000D01*
X84074000Y-132334000D02*
X84074000Y-146050000D01*
X71628000Y-132334000D02*
X84074000Y-132334000D01*
X71628000Y-121412000D02*
X71628000Y-132334000D01*
X60198000Y-121412000D02*
X71628000Y-121412000D01*
X60198000Y-127000000D02*
X60198000Y-121412000D01*
X54610000Y-127000000D02*
X60198000Y-127000000D01*
X54610000Y-76200000D02*
X54610000Y-127000000D01*
X60198000Y-76200000D02*
X54610000Y-76200000D01*
X60198000Y-81788000D02*
X60198000Y-76200000D01*
X71628000Y-81788000D02*
X60198000Y-81788000D01*
X71628000Y-70866000D02*
X71628000Y-81788000D01*
X84074000Y-70866000D02*
X71628000Y-70866000D01*
X84074000Y-57150000D02*
X84074000Y-70866000D01*
X78486000Y-57150000D02*
X84074000Y-57150000D01*
X78486000Y-51562000D02*
X78486000Y-57150000D01*
X107336000Y-51562000D02*
X78486000Y-51562000D01*
M02*
