%TF.GenerationSoftware,KiCad,Pcbnew,7.0.2*%
%TF.CreationDate,2023-05-20T11:27:23+02:00*%
%TF.ProjectId,octostrip,6f63746f-7374-4726-9970-2e6b69636164,rev?*%
%TF.SameCoordinates,Original*%
%TF.FileFunction,Legend,Top*%
%TF.FilePolarity,Positive*%
%FSLAX46Y46*%
G04 Gerber Fmt 4.6, Leading zero omitted, Abs format (unit mm)*
G04 Created by KiCad (PCBNEW 7.0.2) date 2023-05-20 11:27:23*
%MOMM*%
%LPD*%
G01*
G04 APERTURE LIST*
%ADD10C,0.150000*%
%ADD11C,0.120000*%
G04 APERTURE END LIST*
D10*
X82554666Y-80533904D02*
X82554666Y-79772000D01*
X82935619Y-80152952D02*
X82173714Y-80152952D01*
X81935619Y-78819619D02*
X81935619Y-79295809D01*
X81935619Y-79295809D02*
X82411809Y-79343428D01*
X82411809Y-79343428D02*
X82364190Y-79295809D01*
X82364190Y-79295809D02*
X82316571Y-79200571D01*
X82316571Y-79200571D02*
X82316571Y-78962476D01*
X82316571Y-78962476D02*
X82364190Y-78867238D01*
X82364190Y-78867238D02*
X82411809Y-78819619D01*
X82411809Y-78819619D02*
X82507047Y-78772000D01*
X82507047Y-78772000D02*
X82745142Y-78772000D01*
X82745142Y-78772000D02*
X82840380Y-78819619D01*
X82840380Y-78819619D02*
X82888000Y-78867238D01*
X82888000Y-78867238D02*
X82935619Y-78962476D01*
X82935619Y-78962476D02*
X82935619Y-79200571D01*
X82935619Y-79200571D02*
X82888000Y-79295809D01*
X82888000Y-79295809D02*
X82840380Y-79343428D01*
X81935619Y-78486285D02*
X82935619Y-78152952D01*
X82935619Y-78152952D02*
X81935619Y-77819619D01*
X81983238Y-74676095D02*
X81935619Y-74771333D01*
X81935619Y-74771333D02*
X81935619Y-74914190D01*
X81935619Y-74914190D02*
X81983238Y-75057047D01*
X81983238Y-75057047D02*
X82078476Y-75152285D01*
X82078476Y-75152285D02*
X82173714Y-75199904D01*
X82173714Y-75199904D02*
X82364190Y-75247523D01*
X82364190Y-75247523D02*
X82507047Y-75247523D01*
X82507047Y-75247523D02*
X82697523Y-75199904D01*
X82697523Y-75199904D02*
X82792761Y-75152285D01*
X82792761Y-75152285D02*
X82888000Y-75057047D01*
X82888000Y-75057047D02*
X82935619Y-74914190D01*
X82935619Y-74914190D02*
X82935619Y-74818952D01*
X82935619Y-74818952D02*
X82888000Y-74676095D01*
X82888000Y-74676095D02*
X82840380Y-74628476D01*
X82840380Y-74628476D02*
X82507047Y-74628476D01*
X82507047Y-74628476D02*
X82507047Y-74818952D01*
X82935619Y-74199904D02*
X81935619Y-74199904D01*
X81935619Y-74199904D02*
X82935619Y-73628476D01*
X82935619Y-73628476D02*
X81935619Y-73628476D01*
X82935619Y-73152285D02*
X81935619Y-73152285D01*
X81935619Y-73152285D02*
X81935619Y-72914190D01*
X81935619Y-72914190D02*
X81983238Y-72771333D01*
X81983238Y-72771333D02*
X82078476Y-72676095D01*
X82078476Y-72676095D02*
X82173714Y-72628476D01*
X82173714Y-72628476D02*
X82364190Y-72580857D01*
X82364190Y-72580857D02*
X82507047Y-72580857D01*
X82507047Y-72580857D02*
X82697523Y-72628476D01*
X82697523Y-72628476D02*
X82792761Y-72676095D01*
X82792761Y-72676095D02*
X82888000Y-72771333D01*
X82888000Y-72771333D02*
X82935619Y-72914190D01*
X82935619Y-72914190D02*
X82935619Y-73152285D01*
X81983238Y-124968095D02*
X81935619Y-125063333D01*
X81935619Y-125063333D02*
X81935619Y-125206190D01*
X81935619Y-125206190D02*
X81983238Y-125349047D01*
X81983238Y-125349047D02*
X82078476Y-125444285D01*
X82078476Y-125444285D02*
X82173714Y-125491904D01*
X82173714Y-125491904D02*
X82364190Y-125539523D01*
X82364190Y-125539523D02*
X82507047Y-125539523D01*
X82507047Y-125539523D02*
X82697523Y-125491904D01*
X82697523Y-125491904D02*
X82792761Y-125444285D01*
X82792761Y-125444285D02*
X82888000Y-125349047D01*
X82888000Y-125349047D02*
X82935619Y-125206190D01*
X82935619Y-125206190D02*
X82935619Y-125110952D01*
X82935619Y-125110952D02*
X82888000Y-124968095D01*
X82888000Y-124968095D02*
X82840380Y-124920476D01*
X82840380Y-124920476D02*
X82507047Y-124920476D01*
X82507047Y-124920476D02*
X82507047Y-125110952D01*
X82935619Y-124491904D02*
X81935619Y-124491904D01*
X81935619Y-124491904D02*
X82935619Y-123920476D01*
X82935619Y-123920476D02*
X81935619Y-123920476D01*
X82935619Y-123444285D02*
X81935619Y-123444285D01*
X81935619Y-123444285D02*
X81935619Y-123206190D01*
X81935619Y-123206190D02*
X81983238Y-123063333D01*
X81983238Y-123063333D02*
X82078476Y-122968095D01*
X82078476Y-122968095D02*
X82173714Y-122920476D01*
X82173714Y-122920476D02*
X82364190Y-122872857D01*
X82364190Y-122872857D02*
X82507047Y-122872857D01*
X82507047Y-122872857D02*
X82697523Y-122920476D01*
X82697523Y-122920476D02*
X82792761Y-122968095D01*
X82792761Y-122968095D02*
X82888000Y-123063333D01*
X82888000Y-123063333D02*
X82935619Y-123206190D01*
X82935619Y-123206190D02*
X82935619Y-123444285D01*
X73072571Y-84887619D02*
X73263047Y-84887619D01*
X73263047Y-84887619D02*
X73358285Y-84935238D01*
X73358285Y-84935238D02*
X73453523Y-85030476D01*
X73453523Y-85030476D02*
X73501142Y-85220952D01*
X73501142Y-85220952D02*
X73501142Y-85554285D01*
X73501142Y-85554285D02*
X73453523Y-85744761D01*
X73453523Y-85744761D02*
X73358285Y-85840000D01*
X73358285Y-85840000D02*
X73263047Y-85887619D01*
X73263047Y-85887619D02*
X73072571Y-85887619D01*
X73072571Y-85887619D02*
X72977333Y-85840000D01*
X72977333Y-85840000D02*
X72882095Y-85744761D01*
X72882095Y-85744761D02*
X72834476Y-85554285D01*
X72834476Y-85554285D02*
X72834476Y-85220952D01*
X72834476Y-85220952D02*
X72882095Y-85030476D01*
X72882095Y-85030476D02*
X72977333Y-84935238D01*
X72977333Y-84935238D02*
X73072571Y-84887619D01*
X74501142Y-85792380D02*
X74453523Y-85840000D01*
X74453523Y-85840000D02*
X74310666Y-85887619D01*
X74310666Y-85887619D02*
X74215428Y-85887619D01*
X74215428Y-85887619D02*
X74072571Y-85840000D01*
X74072571Y-85840000D02*
X73977333Y-85744761D01*
X73977333Y-85744761D02*
X73929714Y-85649523D01*
X73929714Y-85649523D02*
X73882095Y-85459047D01*
X73882095Y-85459047D02*
X73882095Y-85316190D01*
X73882095Y-85316190D02*
X73929714Y-85125714D01*
X73929714Y-85125714D02*
X73977333Y-85030476D01*
X73977333Y-85030476D02*
X74072571Y-84935238D01*
X74072571Y-84935238D02*
X74215428Y-84887619D01*
X74215428Y-84887619D02*
X74310666Y-84887619D01*
X74310666Y-84887619D02*
X74453523Y-84935238D01*
X74453523Y-84935238D02*
X74501142Y-84982857D01*
X74786857Y-84887619D02*
X75358285Y-84887619D01*
X75072571Y-85887619D02*
X75072571Y-84887619D01*
X75882095Y-84887619D02*
X76072571Y-84887619D01*
X76072571Y-84887619D02*
X76167809Y-84935238D01*
X76167809Y-84935238D02*
X76263047Y-85030476D01*
X76263047Y-85030476D02*
X76310666Y-85220952D01*
X76310666Y-85220952D02*
X76310666Y-85554285D01*
X76310666Y-85554285D02*
X76263047Y-85744761D01*
X76263047Y-85744761D02*
X76167809Y-85840000D01*
X76167809Y-85840000D02*
X76072571Y-85887619D01*
X76072571Y-85887619D02*
X75882095Y-85887619D01*
X75882095Y-85887619D02*
X75786857Y-85840000D01*
X75786857Y-85840000D02*
X75691619Y-85744761D01*
X75691619Y-85744761D02*
X75644000Y-85554285D01*
X75644000Y-85554285D02*
X75644000Y-85220952D01*
X75644000Y-85220952D02*
X75691619Y-85030476D01*
X75691619Y-85030476D02*
X75786857Y-84935238D01*
X75786857Y-84935238D02*
X75882095Y-84887619D01*
X77072571Y-85363809D02*
X77215428Y-85411428D01*
X77215428Y-85411428D02*
X77263047Y-85459047D01*
X77263047Y-85459047D02*
X77310666Y-85554285D01*
X77310666Y-85554285D02*
X77310666Y-85697142D01*
X77310666Y-85697142D02*
X77263047Y-85792380D01*
X77263047Y-85792380D02*
X77215428Y-85840000D01*
X77215428Y-85840000D02*
X77120190Y-85887619D01*
X77120190Y-85887619D02*
X76739238Y-85887619D01*
X76739238Y-85887619D02*
X76739238Y-84887619D01*
X76739238Y-84887619D02*
X77072571Y-84887619D01*
X77072571Y-84887619D02*
X77167809Y-84935238D01*
X77167809Y-84935238D02*
X77215428Y-84982857D01*
X77215428Y-84982857D02*
X77263047Y-85078095D01*
X77263047Y-85078095D02*
X77263047Y-85173333D01*
X77263047Y-85173333D02*
X77215428Y-85268571D01*
X77215428Y-85268571D02*
X77167809Y-85316190D01*
X77167809Y-85316190D02*
X77072571Y-85363809D01*
X77072571Y-85363809D02*
X76739238Y-85363809D01*
X78310666Y-85887619D02*
X77977333Y-85411428D01*
X77739238Y-85887619D02*
X77739238Y-84887619D01*
X77739238Y-84887619D02*
X78120190Y-84887619D01*
X78120190Y-84887619D02*
X78215428Y-84935238D01*
X78215428Y-84935238D02*
X78263047Y-84982857D01*
X78263047Y-84982857D02*
X78310666Y-85078095D01*
X78310666Y-85078095D02*
X78310666Y-85220952D01*
X78310666Y-85220952D02*
X78263047Y-85316190D01*
X78263047Y-85316190D02*
X78215428Y-85363809D01*
X78215428Y-85363809D02*
X78120190Y-85411428D01*
X78120190Y-85411428D02*
X77739238Y-85411428D01*
X78739238Y-85887619D02*
X78739238Y-84887619D01*
X79215428Y-85887619D02*
X79215428Y-84887619D01*
X79215428Y-84887619D02*
X79453523Y-84887619D01*
X79453523Y-84887619D02*
X79596380Y-84935238D01*
X79596380Y-84935238D02*
X79691618Y-85030476D01*
X79691618Y-85030476D02*
X79739237Y-85125714D01*
X79739237Y-85125714D02*
X79786856Y-85316190D01*
X79786856Y-85316190D02*
X79786856Y-85459047D01*
X79786856Y-85459047D02*
X79739237Y-85649523D01*
X79739237Y-85649523D02*
X79691618Y-85744761D01*
X79691618Y-85744761D02*
X79596380Y-85840000D01*
X79596380Y-85840000D02*
X79453523Y-85887619D01*
X79453523Y-85887619D02*
X79215428Y-85887619D01*
X80739237Y-84935238D02*
X80643999Y-84887619D01*
X80643999Y-84887619D02*
X80501142Y-84887619D01*
X80501142Y-84887619D02*
X80358285Y-84935238D01*
X80358285Y-84935238D02*
X80263047Y-85030476D01*
X80263047Y-85030476D02*
X80215428Y-85125714D01*
X80215428Y-85125714D02*
X80167809Y-85316190D01*
X80167809Y-85316190D02*
X80167809Y-85459047D01*
X80167809Y-85459047D02*
X80215428Y-85649523D01*
X80215428Y-85649523D02*
X80263047Y-85744761D01*
X80263047Y-85744761D02*
X80358285Y-85840000D01*
X80358285Y-85840000D02*
X80501142Y-85887619D01*
X80501142Y-85887619D02*
X80596380Y-85887619D01*
X80596380Y-85887619D02*
X80739237Y-85840000D01*
X80739237Y-85840000D02*
X80786856Y-85792380D01*
X80786856Y-85792380D02*
X80786856Y-85459047D01*
X80786856Y-85459047D02*
X80596380Y-85459047D01*
X81215428Y-85363809D02*
X81548761Y-85363809D01*
X81691618Y-85887619D02*
X81215428Y-85887619D01*
X81215428Y-85887619D02*
X81215428Y-84887619D01*
X81215428Y-84887619D02*
X81691618Y-84887619D01*
X73167809Y-86507619D02*
X73167809Y-87221904D01*
X73167809Y-87221904D02*
X73120190Y-87364761D01*
X73120190Y-87364761D02*
X73024952Y-87460000D01*
X73024952Y-87460000D02*
X72882095Y-87507619D01*
X72882095Y-87507619D02*
X72786857Y-87507619D01*
X73644000Y-87412380D02*
X73691619Y-87460000D01*
X73691619Y-87460000D02*
X73644000Y-87507619D01*
X73644000Y-87507619D02*
X73596381Y-87460000D01*
X73596381Y-87460000D02*
X73644000Y-87412380D01*
X73644000Y-87412380D02*
X73644000Y-87507619D01*
X75453523Y-87412380D02*
X75405904Y-87460000D01*
X75405904Y-87460000D02*
X75263047Y-87507619D01*
X75263047Y-87507619D02*
X75167809Y-87507619D01*
X75167809Y-87507619D02*
X75024952Y-87460000D01*
X75024952Y-87460000D02*
X74929714Y-87364761D01*
X74929714Y-87364761D02*
X74882095Y-87269523D01*
X74882095Y-87269523D02*
X74834476Y-87079047D01*
X74834476Y-87079047D02*
X74834476Y-86936190D01*
X74834476Y-86936190D02*
X74882095Y-86745714D01*
X74882095Y-86745714D02*
X74929714Y-86650476D01*
X74929714Y-86650476D02*
X75024952Y-86555238D01*
X75024952Y-86555238D02*
X75167809Y-86507619D01*
X75167809Y-86507619D02*
X75263047Y-86507619D01*
X75263047Y-86507619D02*
X75405904Y-86555238D01*
X75405904Y-86555238D02*
X75453523Y-86602857D01*
X76024952Y-87507619D02*
X75929714Y-87460000D01*
X75929714Y-87460000D02*
X75882095Y-87412380D01*
X75882095Y-87412380D02*
X75834476Y-87317142D01*
X75834476Y-87317142D02*
X75834476Y-87031428D01*
X75834476Y-87031428D02*
X75882095Y-86936190D01*
X75882095Y-86936190D02*
X75929714Y-86888571D01*
X75929714Y-86888571D02*
X76024952Y-86840952D01*
X76024952Y-86840952D02*
X76167809Y-86840952D01*
X76167809Y-86840952D02*
X76263047Y-86888571D01*
X76263047Y-86888571D02*
X76310666Y-86936190D01*
X76310666Y-86936190D02*
X76358285Y-87031428D01*
X76358285Y-87031428D02*
X76358285Y-87317142D01*
X76358285Y-87317142D02*
X76310666Y-87412380D01*
X76310666Y-87412380D02*
X76263047Y-87460000D01*
X76263047Y-87460000D02*
X76167809Y-87507619D01*
X76167809Y-87507619D02*
X76024952Y-87507619D01*
X76929714Y-87507619D02*
X76834476Y-87460000D01*
X76834476Y-87460000D02*
X76786857Y-87364761D01*
X76786857Y-87364761D02*
X76786857Y-86507619D01*
X77310667Y-87507619D02*
X77310667Y-86840952D01*
X77310667Y-86507619D02*
X77263048Y-86555238D01*
X77263048Y-86555238D02*
X77310667Y-86602857D01*
X77310667Y-86602857D02*
X77358286Y-86555238D01*
X77358286Y-86555238D02*
X77310667Y-86507619D01*
X77310667Y-86507619D02*
X77310667Y-86602857D01*
X77786857Y-86840952D02*
X77786857Y-87507619D01*
X77786857Y-86936190D02*
X77834476Y-86888571D01*
X77834476Y-86888571D02*
X77929714Y-86840952D01*
X77929714Y-86840952D02*
X78072571Y-86840952D01*
X78072571Y-86840952D02*
X78167809Y-86888571D01*
X78167809Y-86888571D02*
X78215428Y-86983809D01*
X78215428Y-86983809D02*
X78215428Y-87507619D01*
X79072571Y-87460000D02*
X78977333Y-87507619D01*
X78977333Y-87507619D02*
X78786857Y-87507619D01*
X78786857Y-87507619D02*
X78691619Y-87460000D01*
X78691619Y-87460000D02*
X78644000Y-87364761D01*
X78644000Y-87364761D02*
X78644000Y-86983809D01*
X78644000Y-86983809D02*
X78691619Y-86888571D01*
X78691619Y-86888571D02*
X78786857Y-86840952D01*
X78786857Y-86840952D02*
X78977333Y-86840952D01*
X78977333Y-86840952D02*
X79072571Y-86888571D01*
X79072571Y-86888571D02*
X79120190Y-86983809D01*
X79120190Y-86983809D02*
X79120190Y-87079047D01*
X79120190Y-87079047D02*
X78644000Y-87174285D01*
X82554666Y-130571904D02*
X82554666Y-129810000D01*
X82935619Y-130190952D02*
X82173714Y-130190952D01*
X81935619Y-128857619D02*
X81935619Y-129333809D01*
X81935619Y-129333809D02*
X82411809Y-129381428D01*
X82411809Y-129381428D02*
X82364190Y-129333809D01*
X82364190Y-129333809D02*
X82316571Y-129238571D01*
X82316571Y-129238571D02*
X82316571Y-129000476D01*
X82316571Y-129000476D02*
X82364190Y-128905238D01*
X82364190Y-128905238D02*
X82411809Y-128857619D01*
X82411809Y-128857619D02*
X82507047Y-128810000D01*
X82507047Y-128810000D02*
X82745142Y-128810000D01*
X82745142Y-128810000D02*
X82840380Y-128857619D01*
X82840380Y-128857619D02*
X82888000Y-128905238D01*
X82888000Y-128905238D02*
X82935619Y-129000476D01*
X82935619Y-129000476D02*
X82935619Y-129238571D01*
X82935619Y-129238571D02*
X82888000Y-129333809D01*
X82888000Y-129333809D02*
X82840380Y-129381428D01*
X81935619Y-128524285D02*
X82935619Y-128190952D01*
X82935619Y-128190952D02*
X81935619Y-127857619D01*
%TO.C,RJ2*%
X54210619Y-112047619D02*
X53734428Y-112380952D01*
X54210619Y-112619047D02*
X53210619Y-112619047D01*
X53210619Y-112619047D02*
X53210619Y-112238095D01*
X53210619Y-112238095D02*
X53258238Y-112142857D01*
X53258238Y-112142857D02*
X53305857Y-112095238D01*
X53305857Y-112095238D02*
X53401095Y-112047619D01*
X53401095Y-112047619D02*
X53543952Y-112047619D01*
X53543952Y-112047619D02*
X53639190Y-112095238D01*
X53639190Y-112095238D02*
X53686809Y-112142857D01*
X53686809Y-112142857D02*
X53734428Y-112238095D01*
X53734428Y-112238095D02*
X53734428Y-112619047D01*
X53210619Y-111333333D02*
X53924904Y-111333333D01*
X53924904Y-111333333D02*
X54067761Y-111380952D01*
X54067761Y-111380952D02*
X54163000Y-111476190D01*
X54163000Y-111476190D02*
X54210619Y-111619047D01*
X54210619Y-111619047D02*
X54210619Y-111714285D01*
X53305857Y-110904761D02*
X53258238Y-110857142D01*
X53258238Y-110857142D02*
X53210619Y-110761904D01*
X53210619Y-110761904D02*
X53210619Y-110523809D01*
X53210619Y-110523809D02*
X53258238Y-110428571D01*
X53258238Y-110428571D02*
X53305857Y-110380952D01*
X53305857Y-110380952D02*
X53401095Y-110333333D01*
X53401095Y-110333333D02*
X53496333Y-110333333D01*
X53496333Y-110333333D02*
X53639190Y-110380952D01*
X53639190Y-110380952D02*
X54210619Y-110952380D01*
X54210619Y-110952380D02*
X54210619Y-110333333D01*
%TO.C,H2*%
X80518095Y-51318619D02*
X80518095Y-50318619D01*
X80518095Y-50794809D02*
X81089523Y-50794809D01*
X81089523Y-51318619D02*
X81089523Y-50318619D01*
X81518095Y-50413857D02*
X81565714Y-50366238D01*
X81565714Y-50366238D02*
X81660952Y-50318619D01*
X81660952Y-50318619D02*
X81899047Y-50318619D01*
X81899047Y-50318619D02*
X81994285Y-50366238D01*
X81994285Y-50366238D02*
X82041904Y-50413857D01*
X82041904Y-50413857D02*
X82089523Y-50509095D01*
X82089523Y-50509095D02*
X82089523Y-50604333D01*
X82089523Y-50604333D02*
X82041904Y-50747190D01*
X82041904Y-50747190D02*
X81470476Y-51318619D01*
X81470476Y-51318619D02*
X82089523Y-51318619D01*
%TO.C,H3*%
X80518095Y-152806619D02*
X80518095Y-151806619D01*
X80518095Y-152282809D02*
X81089523Y-152282809D01*
X81089523Y-152806619D02*
X81089523Y-151806619D01*
X81470476Y-151806619D02*
X82089523Y-151806619D01*
X82089523Y-151806619D02*
X81756190Y-152187571D01*
X81756190Y-152187571D02*
X81899047Y-152187571D01*
X81899047Y-152187571D02*
X81994285Y-152235190D01*
X81994285Y-152235190D02*
X82041904Y-152282809D01*
X82041904Y-152282809D02*
X82089523Y-152378047D01*
X82089523Y-152378047D02*
X82089523Y-152616142D01*
X82089523Y-152616142D02*
X82041904Y-152711380D01*
X82041904Y-152711380D02*
X81994285Y-152759000D01*
X81994285Y-152759000D02*
X81899047Y-152806619D01*
X81899047Y-152806619D02*
X81613333Y-152806619D01*
X81613333Y-152806619D02*
X81518095Y-152759000D01*
X81518095Y-152759000D02*
X81470476Y-152711380D01*
%TO.C,R5*%
X77557333Y-105956619D02*
X77224000Y-105480428D01*
X76985905Y-105956619D02*
X76985905Y-104956619D01*
X76985905Y-104956619D02*
X77366857Y-104956619D01*
X77366857Y-104956619D02*
X77462095Y-105004238D01*
X77462095Y-105004238D02*
X77509714Y-105051857D01*
X77509714Y-105051857D02*
X77557333Y-105147095D01*
X77557333Y-105147095D02*
X77557333Y-105289952D01*
X77557333Y-105289952D02*
X77509714Y-105385190D01*
X77509714Y-105385190D02*
X77462095Y-105432809D01*
X77462095Y-105432809D02*
X77366857Y-105480428D01*
X77366857Y-105480428D02*
X76985905Y-105480428D01*
X78462095Y-104956619D02*
X77985905Y-104956619D01*
X77985905Y-104956619D02*
X77938286Y-105432809D01*
X77938286Y-105432809D02*
X77985905Y-105385190D01*
X77985905Y-105385190D02*
X78081143Y-105337571D01*
X78081143Y-105337571D02*
X78319238Y-105337571D01*
X78319238Y-105337571D02*
X78414476Y-105385190D01*
X78414476Y-105385190D02*
X78462095Y-105432809D01*
X78462095Y-105432809D02*
X78509714Y-105528047D01*
X78509714Y-105528047D02*
X78509714Y-105766142D01*
X78509714Y-105766142D02*
X78462095Y-105861380D01*
X78462095Y-105861380D02*
X78414476Y-105909000D01*
X78414476Y-105909000D02*
X78319238Y-105956619D01*
X78319238Y-105956619D02*
X78081143Y-105956619D01*
X78081143Y-105956619D02*
X77985905Y-105909000D01*
X77985905Y-105909000D02*
X77938286Y-105861380D01*
%TO.C,R6*%
X77557333Y-108906619D02*
X77224000Y-108430428D01*
X76985905Y-108906619D02*
X76985905Y-107906619D01*
X76985905Y-107906619D02*
X77366857Y-107906619D01*
X77366857Y-107906619D02*
X77462095Y-107954238D01*
X77462095Y-107954238D02*
X77509714Y-108001857D01*
X77509714Y-108001857D02*
X77557333Y-108097095D01*
X77557333Y-108097095D02*
X77557333Y-108239952D01*
X77557333Y-108239952D02*
X77509714Y-108335190D01*
X77509714Y-108335190D02*
X77462095Y-108382809D01*
X77462095Y-108382809D02*
X77366857Y-108430428D01*
X77366857Y-108430428D02*
X76985905Y-108430428D01*
X78414476Y-107906619D02*
X78224000Y-107906619D01*
X78224000Y-107906619D02*
X78128762Y-107954238D01*
X78128762Y-107954238D02*
X78081143Y-108001857D01*
X78081143Y-108001857D02*
X77985905Y-108144714D01*
X77985905Y-108144714D02*
X77938286Y-108335190D01*
X77938286Y-108335190D02*
X77938286Y-108716142D01*
X77938286Y-108716142D02*
X77985905Y-108811380D01*
X77985905Y-108811380D02*
X78033524Y-108859000D01*
X78033524Y-108859000D02*
X78128762Y-108906619D01*
X78128762Y-108906619D02*
X78319238Y-108906619D01*
X78319238Y-108906619D02*
X78414476Y-108859000D01*
X78414476Y-108859000D02*
X78462095Y-108811380D01*
X78462095Y-108811380D02*
X78509714Y-108716142D01*
X78509714Y-108716142D02*
X78509714Y-108478047D01*
X78509714Y-108478047D02*
X78462095Y-108382809D01*
X78462095Y-108382809D02*
X78414476Y-108335190D01*
X78414476Y-108335190D02*
X78319238Y-108287571D01*
X78319238Y-108287571D02*
X78128762Y-108287571D01*
X78128762Y-108287571D02*
X78033524Y-108335190D01*
X78033524Y-108335190D02*
X77985905Y-108382809D01*
X77985905Y-108382809D02*
X77938286Y-108478047D01*
%TO.C,R2*%
X77557333Y-97106619D02*
X77224000Y-96630428D01*
X76985905Y-97106619D02*
X76985905Y-96106619D01*
X76985905Y-96106619D02*
X77366857Y-96106619D01*
X77366857Y-96106619D02*
X77462095Y-96154238D01*
X77462095Y-96154238D02*
X77509714Y-96201857D01*
X77509714Y-96201857D02*
X77557333Y-96297095D01*
X77557333Y-96297095D02*
X77557333Y-96439952D01*
X77557333Y-96439952D02*
X77509714Y-96535190D01*
X77509714Y-96535190D02*
X77462095Y-96582809D01*
X77462095Y-96582809D02*
X77366857Y-96630428D01*
X77366857Y-96630428D02*
X76985905Y-96630428D01*
X77938286Y-96201857D02*
X77985905Y-96154238D01*
X77985905Y-96154238D02*
X78081143Y-96106619D01*
X78081143Y-96106619D02*
X78319238Y-96106619D01*
X78319238Y-96106619D02*
X78414476Y-96154238D01*
X78414476Y-96154238D02*
X78462095Y-96201857D01*
X78462095Y-96201857D02*
X78509714Y-96297095D01*
X78509714Y-96297095D02*
X78509714Y-96392333D01*
X78509714Y-96392333D02*
X78462095Y-96535190D01*
X78462095Y-96535190D02*
X77890667Y-97106619D01*
X77890667Y-97106619D02*
X78509714Y-97106619D01*
%TO.C,R4*%
X77557333Y-103006619D02*
X77224000Y-102530428D01*
X76985905Y-103006619D02*
X76985905Y-102006619D01*
X76985905Y-102006619D02*
X77366857Y-102006619D01*
X77366857Y-102006619D02*
X77462095Y-102054238D01*
X77462095Y-102054238D02*
X77509714Y-102101857D01*
X77509714Y-102101857D02*
X77557333Y-102197095D01*
X77557333Y-102197095D02*
X77557333Y-102339952D01*
X77557333Y-102339952D02*
X77509714Y-102435190D01*
X77509714Y-102435190D02*
X77462095Y-102482809D01*
X77462095Y-102482809D02*
X77366857Y-102530428D01*
X77366857Y-102530428D02*
X76985905Y-102530428D01*
X78414476Y-102339952D02*
X78414476Y-103006619D01*
X78176381Y-101959000D02*
X77938286Y-102673285D01*
X77938286Y-102673285D02*
X78557333Y-102673285D01*
%TO.C,H1*%
X56642095Y-75956619D02*
X56642095Y-74956619D01*
X56642095Y-75432809D02*
X57213523Y-75432809D01*
X57213523Y-75956619D02*
X57213523Y-74956619D01*
X58213523Y-75956619D02*
X57642095Y-75956619D01*
X57927809Y-75956619D02*
X57927809Y-74956619D01*
X57927809Y-74956619D02*
X57832571Y-75099476D01*
X57832571Y-75099476D02*
X57737333Y-75194714D01*
X57737333Y-75194714D02*
X57642095Y-75242333D01*
%TO.C,R1*%
X77557333Y-94156619D02*
X77224000Y-93680428D01*
X76985905Y-94156619D02*
X76985905Y-93156619D01*
X76985905Y-93156619D02*
X77366857Y-93156619D01*
X77366857Y-93156619D02*
X77462095Y-93204238D01*
X77462095Y-93204238D02*
X77509714Y-93251857D01*
X77509714Y-93251857D02*
X77557333Y-93347095D01*
X77557333Y-93347095D02*
X77557333Y-93489952D01*
X77557333Y-93489952D02*
X77509714Y-93585190D01*
X77509714Y-93585190D02*
X77462095Y-93632809D01*
X77462095Y-93632809D02*
X77366857Y-93680428D01*
X77366857Y-93680428D02*
X76985905Y-93680428D01*
X78509714Y-94156619D02*
X77938286Y-94156619D01*
X78224000Y-94156619D02*
X78224000Y-93156619D01*
X78224000Y-93156619D02*
X78128762Y-93299476D01*
X78128762Y-93299476D02*
X78033524Y-93394714D01*
X78033524Y-93394714D02*
X77938286Y-93442333D01*
%TO.C,R7*%
X77557333Y-111856619D02*
X77224000Y-111380428D01*
X76985905Y-111856619D02*
X76985905Y-110856619D01*
X76985905Y-110856619D02*
X77366857Y-110856619D01*
X77366857Y-110856619D02*
X77462095Y-110904238D01*
X77462095Y-110904238D02*
X77509714Y-110951857D01*
X77509714Y-110951857D02*
X77557333Y-111047095D01*
X77557333Y-111047095D02*
X77557333Y-111189952D01*
X77557333Y-111189952D02*
X77509714Y-111285190D01*
X77509714Y-111285190D02*
X77462095Y-111332809D01*
X77462095Y-111332809D02*
X77366857Y-111380428D01*
X77366857Y-111380428D02*
X76985905Y-111380428D01*
X77890667Y-110856619D02*
X78557333Y-110856619D01*
X78557333Y-110856619D02*
X78128762Y-111856619D01*
%TO.C,R8*%
X77557333Y-114806619D02*
X77224000Y-114330428D01*
X76985905Y-114806619D02*
X76985905Y-113806619D01*
X76985905Y-113806619D02*
X77366857Y-113806619D01*
X77366857Y-113806619D02*
X77462095Y-113854238D01*
X77462095Y-113854238D02*
X77509714Y-113901857D01*
X77509714Y-113901857D02*
X77557333Y-113997095D01*
X77557333Y-113997095D02*
X77557333Y-114139952D01*
X77557333Y-114139952D02*
X77509714Y-114235190D01*
X77509714Y-114235190D02*
X77462095Y-114282809D01*
X77462095Y-114282809D02*
X77366857Y-114330428D01*
X77366857Y-114330428D02*
X76985905Y-114330428D01*
X78128762Y-114235190D02*
X78033524Y-114187571D01*
X78033524Y-114187571D02*
X77985905Y-114139952D01*
X77985905Y-114139952D02*
X77938286Y-114044714D01*
X77938286Y-114044714D02*
X77938286Y-113997095D01*
X77938286Y-113997095D02*
X77985905Y-113901857D01*
X77985905Y-113901857D02*
X78033524Y-113854238D01*
X78033524Y-113854238D02*
X78128762Y-113806619D01*
X78128762Y-113806619D02*
X78319238Y-113806619D01*
X78319238Y-113806619D02*
X78414476Y-113854238D01*
X78414476Y-113854238D02*
X78462095Y-113901857D01*
X78462095Y-113901857D02*
X78509714Y-113997095D01*
X78509714Y-113997095D02*
X78509714Y-114044714D01*
X78509714Y-114044714D02*
X78462095Y-114139952D01*
X78462095Y-114139952D02*
X78414476Y-114187571D01*
X78414476Y-114187571D02*
X78319238Y-114235190D01*
X78319238Y-114235190D02*
X78128762Y-114235190D01*
X78128762Y-114235190D02*
X78033524Y-114282809D01*
X78033524Y-114282809D02*
X77985905Y-114330428D01*
X77985905Y-114330428D02*
X77938286Y-114425666D01*
X77938286Y-114425666D02*
X77938286Y-114616142D01*
X77938286Y-114616142D02*
X77985905Y-114711380D01*
X77985905Y-114711380D02*
X78033524Y-114759000D01*
X78033524Y-114759000D02*
X78128762Y-114806619D01*
X78128762Y-114806619D02*
X78319238Y-114806619D01*
X78319238Y-114806619D02*
X78414476Y-114759000D01*
X78414476Y-114759000D02*
X78462095Y-114711380D01*
X78462095Y-114711380D02*
X78509714Y-114616142D01*
X78509714Y-114616142D02*
X78509714Y-114425666D01*
X78509714Y-114425666D02*
X78462095Y-114330428D01*
X78462095Y-114330428D02*
X78414476Y-114282809D01*
X78414476Y-114282809D02*
X78319238Y-114235190D01*
%TO.C,R3*%
X77557333Y-100056619D02*
X77224000Y-99580428D01*
X76985905Y-100056619D02*
X76985905Y-99056619D01*
X76985905Y-99056619D02*
X77366857Y-99056619D01*
X77366857Y-99056619D02*
X77462095Y-99104238D01*
X77462095Y-99104238D02*
X77509714Y-99151857D01*
X77509714Y-99151857D02*
X77557333Y-99247095D01*
X77557333Y-99247095D02*
X77557333Y-99389952D01*
X77557333Y-99389952D02*
X77509714Y-99485190D01*
X77509714Y-99485190D02*
X77462095Y-99532809D01*
X77462095Y-99532809D02*
X77366857Y-99580428D01*
X77366857Y-99580428D02*
X76985905Y-99580428D01*
X77890667Y-99056619D02*
X78509714Y-99056619D01*
X78509714Y-99056619D02*
X78176381Y-99437571D01*
X78176381Y-99437571D02*
X78319238Y-99437571D01*
X78319238Y-99437571D02*
X78414476Y-99485190D01*
X78414476Y-99485190D02*
X78462095Y-99532809D01*
X78462095Y-99532809D02*
X78509714Y-99628047D01*
X78509714Y-99628047D02*
X78509714Y-99866142D01*
X78509714Y-99866142D02*
X78462095Y-99961380D01*
X78462095Y-99961380D02*
X78414476Y-100009000D01*
X78414476Y-100009000D02*
X78319238Y-100056619D01*
X78319238Y-100056619D02*
X78033524Y-100056619D01*
X78033524Y-100056619D02*
X77938286Y-100009000D01*
X77938286Y-100009000D02*
X77890667Y-99961380D01*
%TO.C,RJ1*%
X54212619Y-92239619D02*
X53736428Y-92572952D01*
X54212619Y-92811047D02*
X53212619Y-92811047D01*
X53212619Y-92811047D02*
X53212619Y-92430095D01*
X53212619Y-92430095D02*
X53260238Y-92334857D01*
X53260238Y-92334857D02*
X53307857Y-92287238D01*
X53307857Y-92287238D02*
X53403095Y-92239619D01*
X53403095Y-92239619D02*
X53545952Y-92239619D01*
X53545952Y-92239619D02*
X53641190Y-92287238D01*
X53641190Y-92287238D02*
X53688809Y-92334857D01*
X53688809Y-92334857D02*
X53736428Y-92430095D01*
X53736428Y-92430095D02*
X53736428Y-92811047D01*
X53212619Y-91525333D02*
X53926904Y-91525333D01*
X53926904Y-91525333D02*
X54069761Y-91572952D01*
X54069761Y-91572952D02*
X54165000Y-91668190D01*
X54165000Y-91668190D02*
X54212619Y-91811047D01*
X54212619Y-91811047D02*
X54212619Y-91906285D01*
X54212619Y-90525333D02*
X54212619Y-91096761D01*
X54212619Y-90811047D02*
X53212619Y-90811047D01*
X53212619Y-90811047D02*
X53355476Y-90906285D01*
X53355476Y-90906285D02*
X53450714Y-91001523D01*
X53450714Y-91001523D02*
X53498333Y-91096761D01*
%TO.C,H4*%
X54366619Y-124967904D02*
X53366619Y-124967904D01*
X53842809Y-124967904D02*
X53842809Y-124396476D01*
X54366619Y-124396476D02*
X53366619Y-124396476D01*
X53699952Y-123491714D02*
X54366619Y-123491714D01*
X53319000Y-123729809D02*
X54033285Y-123967904D01*
X54033285Y-123967904D02*
X54033285Y-123348857D01*
D11*
%TO.C,Power1*%
X72548000Y-71154000D02*
X71908000Y-71154000D01*
X71908000Y-71154000D02*
X71908000Y-71554000D01*
X81268000Y-71394000D02*
X72148000Y-71394000D01*
X81268000Y-71394000D02*
X81268000Y-81514000D01*
X73708000Y-71394000D02*
X73708000Y-81514000D01*
X72608000Y-71394000D02*
X72608000Y-81514000D01*
X72148000Y-71394000D02*
X72148000Y-81514000D01*
X75927000Y-72406000D02*
X75820000Y-72300000D01*
X75661000Y-72672000D02*
X75554000Y-72566000D01*
X78862000Y-75342000D02*
X78755000Y-75235000D01*
X78596000Y-75608000D02*
X78489000Y-75501000D01*
X76216000Y-77696000D02*
X75820000Y-77301000D01*
X75934000Y-77947000D02*
X75554000Y-77567000D01*
X78862000Y-80342000D02*
X78482000Y-79962000D01*
X78596000Y-80608000D02*
X78200000Y-80213000D01*
X81268000Y-81514000D02*
X72148000Y-81514000D01*
X79388000Y-73954000D02*
G75*
G03*
X79388000Y-73954000I-2180000J0D01*
G01*
X79388000Y-78954000D02*
G75*
G03*
X79388000Y-78954000I-2180000J0D01*
G01*
%TO.C,RJ2*%
X62048000Y-120560000D02*
X62548000Y-120060000D01*
X63048000Y-120560000D02*
X62048000Y-120560000D01*
X62548000Y-120060000D02*
X63048000Y-120560000D01*
X55138000Y-119865000D02*
X62748000Y-119865000D01*
X55138000Y-119865000D02*
X55138000Y-103135000D01*
X71108000Y-119865000D02*
X65548000Y-119865000D01*
X71108000Y-119865000D02*
X71108000Y-103135000D01*
X55138000Y-103135000D02*
X62748000Y-103135000D01*
X71108000Y-103135000D02*
X65548000Y-103135000D01*
%TO.C,Power2*%
X72556000Y-121406000D02*
X71916000Y-121406000D01*
X71916000Y-121406000D02*
X71916000Y-121806000D01*
X81276000Y-121646000D02*
X72156000Y-121646000D01*
X81276000Y-121646000D02*
X81276000Y-131766000D01*
X73716000Y-121646000D02*
X73716000Y-131766000D01*
X72616000Y-121646000D02*
X72616000Y-131766000D01*
X72156000Y-121646000D02*
X72156000Y-131766000D01*
X75935000Y-122658000D02*
X75828000Y-122552000D01*
X75669000Y-122924000D02*
X75562000Y-122818000D01*
X78870000Y-125594000D02*
X78763000Y-125487000D01*
X78604000Y-125860000D02*
X78497000Y-125753000D01*
X76224000Y-127948000D02*
X75828000Y-127553000D01*
X75942000Y-128199000D02*
X75562000Y-127819000D01*
X78870000Y-130594000D02*
X78490000Y-130214000D01*
X78604000Y-130860000D02*
X78208000Y-130465000D01*
X81276000Y-131766000D02*
X72156000Y-131766000D01*
X79396000Y-124206000D02*
G75*
G03*
X79396000Y-124206000I-2180000J0D01*
G01*
X79396000Y-129206000D02*
G75*
G03*
X79396000Y-129206000I-2180000J0D01*
G01*
%TO.C,C8*%
X94544000Y-146022000D02*
G75*
G03*
X94544000Y-146022000I-4120000J0D01*
G01*
%TO.C,C6*%
X94544000Y-120650000D02*
G75*
G03*
X94544000Y-120650000I-4120000J0D01*
G01*
%TO.C,R5*%
X81764000Y-103124000D02*
X80994000Y-103124000D01*
X80994000Y-104494000D02*
X80994000Y-101754000D01*
X80994000Y-101754000D02*
X74454000Y-101754000D01*
X74454000Y-104494000D02*
X80994000Y-104494000D01*
X74454000Y-101754000D02*
X74454000Y-104494000D01*
X73684000Y-103124000D02*
X74454000Y-103124000D01*
%TO.C,R6*%
X81764000Y-106074000D02*
X80994000Y-106074000D01*
X80994000Y-107444000D02*
X80994000Y-104704000D01*
X80994000Y-104704000D02*
X74454000Y-104704000D01*
X74454000Y-107444000D02*
X80994000Y-107444000D01*
X74454000Y-104704000D02*
X74454000Y-107444000D01*
X73684000Y-106074000D02*
X74454000Y-106074000D01*
%TO.C,STRIP6*%
X95126000Y-125750000D02*
X95126000Y-124330000D01*
X106846000Y-125750000D02*
X95126000Y-125750000D01*
X95126000Y-124330000D02*
X99626000Y-124330000D01*
X99626000Y-124330000D02*
X99626000Y-120690000D01*
X95436000Y-123490000D02*
X95436000Y-122890000D01*
X100736000Y-123440000D02*
X106236000Y-123440000D01*
X106236000Y-123440000D02*
X106236000Y-122940000D01*
X96036000Y-123190000D02*
X95436000Y-123490000D01*
X100736000Y-122940000D02*
X100736000Y-123440000D01*
X106236000Y-122940000D02*
X100736000Y-122940000D01*
X95436000Y-122890000D02*
X96036000Y-123190000D01*
X100736000Y-120940000D02*
X106236000Y-120940000D01*
X106236000Y-120940000D02*
X106236000Y-120440000D01*
X106846000Y-120690000D02*
X106846000Y-125750000D01*
X106846000Y-120690000D02*
X106846000Y-115630000D01*
X100736000Y-120440000D02*
X100736000Y-120940000D01*
X106236000Y-120440000D02*
X100736000Y-120440000D01*
X100736000Y-118440000D02*
X106236000Y-118440000D01*
X106236000Y-118440000D02*
X106236000Y-117940000D01*
X100736000Y-117940000D02*
X100736000Y-118440000D01*
X106236000Y-117940000D02*
X100736000Y-117940000D01*
X95126000Y-117050000D02*
X99626000Y-117050000D01*
X99626000Y-117050000D02*
X99626000Y-120690000D01*
X95126000Y-115630000D02*
X95126000Y-117050000D01*
X106846000Y-115630000D02*
X95126000Y-115630000D01*
%TO.C,R2*%
X81764000Y-94274000D02*
X80994000Y-94274000D01*
X80994000Y-95644000D02*
X80994000Y-92904000D01*
X80994000Y-92904000D02*
X74454000Y-92904000D01*
X74454000Y-95644000D02*
X80994000Y-95644000D01*
X74454000Y-92904000D02*
X74454000Y-95644000D01*
X73684000Y-94274000D02*
X74454000Y-94274000D01*
%TO.C,R4*%
X81764000Y-100174000D02*
X80994000Y-100174000D01*
X80994000Y-101544000D02*
X80994000Y-98804000D01*
X80994000Y-98804000D02*
X74454000Y-98804000D01*
X74454000Y-101544000D02*
X80994000Y-101544000D01*
X74454000Y-98804000D02*
X74454000Y-101544000D01*
X73684000Y-100174000D02*
X74454000Y-100174000D01*
%TO.C,C7*%
X94544000Y-133350000D02*
G75*
G03*
X94544000Y-133350000I-4120000J0D01*
G01*
%TO.C,C2*%
X94544000Y-69822000D02*
G75*
G03*
X94544000Y-69822000I-4120000J0D01*
G01*
%TO.C,C1*%
X94544000Y-57150000D02*
G75*
G03*
X94544000Y-57150000I-4120000J0D01*
G01*
%TO.C,STRIP4*%
X95126000Y-100310000D02*
X95126000Y-98890000D01*
X106846000Y-100310000D02*
X95126000Y-100310000D01*
X95126000Y-98890000D02*
X99626000Y-98890000D01*
X99626000Y-98890000D02*
X99626000Y-95250000D01*
X95436000Y-98050000D02*
X95436000Y-97450000D01*
X100736000Y-98000000D02*
X106236000Y-98000000D01*
X106236000Y-98000000D02*
X106236000Y-97500000D01*
X96036000Y-97750000D02*
X95436000Y-98050000D01*
X100736000Y-97500000D02*
X100736000Y-98000000D01*
X106236000Y-97500000D02*
X100736000Y-97500000D01*
X95436000Y-97450000D02*
X96036000Y-97750000D01*
X100736000Y-95500000D02*
X106236000Y-95500000D01*
X106236000Y-95500000D02*
X106236000Y-95000000D01*
X106846000Y-95250000D02*
X106846000Y-100310000D01*
X106846000Y-95250000D02*
X106846000Y-90190000D01*
X100736000Y-95000000D02*
X100736000Y-95500000D01*
X106236000Y-95000000D02*
X100736000Y-95000000D01*
X100736000Y-93000000D02*
X106236000Y-93000000D01*
X106236000Y-93000000D02*
X106236000Y-92500000D01*
X100736000Y-92500000D02*
X100736000Y-93000000D01*
X106236000Y-92500000D02*
X100736000Y-92500000D01*
X95126000Y-91610000D02*
X99626000Y-91610000D01*
X99626000Y-91610000D02*
X99626000Y-95250000D01*
X95126000Y-90190000D02*
X95126000Y-91610000D01*
X106846000Y-90190000D02*
X95126000Y-90190000D01*
%TO.C,R1*%
X81764000Y-91324000D02*
X80994000Y-91324000D01*
X80994000Y-92694000D02*
X80994000Y-89954000D01*
X80994000Y-89954000D02*
X74454000Y-89954000D01*
X74454000Y-92694000D02*
X80994000Y-92694000D01*
X74454000Y-89954000D02*
X74454000Y-92694000D01*
X73684000Y-91324000D02*
X74454000Y-91324000D01*
%TO.C,R7*%
X81764000Y-109024000D02*
X80994000Y-109024000D01*
X80994000Y-110394000D02*
X80994000Y-107654000D01*
X80994000Y-107654000D02*
X74454000Y-107654000D01*
X74454000Y-110394000D02*
X80994000Y-110394000D01*
X74454000Y-107654000D02*
X74454000Y-110394000D01*
X73684000Y-109024000D02*
X74454000Y-109024000D01*
%TO.C,STRIP5*%
X95126000Y-113050000D02*
X95126000Y-111630000D01*
X106846000Y-113050000D02*
X95126000Y-113050000D01*
X95126000Y-111630000D02*
X99626000Y-111630000D01*
X99626000Y-111630000D02*
X99626000Y-107990000D01*
X95436000Y-110790000D02*
X95436000Y-110190000D01*
X100736000Y-110740000D02*
X106236000Y-110740000D01*
X106236000Y-110740000D02*
X106236000Y-110240000D01*
X96036000Y-110490000D02*
X95436000Y-110790000D01*
X100736000Y-110240000D02*
X100736000Y-110740000D01*
X106236000Y-110240000D02*
X100736000Y-110240000D01*
X95436000Y-110190000D02*
X96036000Y-110490000D01*
X100736000Y-108240000D02*
X106236000Y-108240000D01*
X106236000Y-108240000D02*
X106236000Y-107740000D01*
X106846000Y-107990000D02*
X106846000Y-113050000D01*
X106846000Y-107990000D02*
X106846000Y-102930000D01*
X100736000Y-107740000D02*
X100736000Y-108240000D01*
X106236000Y-107740000D02*
X100736000Y-107740000D01*
X100736000Y-105740000D02*
X106236000Y-105740000D01*
X106236000Y-105740000D02*
X106236000Y-105240000D01*
X100736000Y-105240000D02*
X100736000Y-105740000D01*
X106236000Y-105240000D02*
X100736000Y-105240000D01*
X95126000Y-104350000D02*
X99626000Y-104350000D01*
X99626000Y-104350000D02*
X99626000Y-107990000D01*
X95126000Y-102930000D02*
X95126000Y-104350000D01*
X106846000Y-102930000D02*
X95126000Y-102930000D01*
%TO.C,STRIP2*%
X95126000Y-74870000D02*
X95126000Y-73450000D01*
X106846000Y-74870000D02*
X95126000Y-74870000D01*
X95126000Y-73450000D02*
X99626000Y-73450000D01*
X99626000Y-73450000D02*
X99626000Y-69810000D01*
X95436000Y-72610000D02*
X95436000Y-72010000D01*
X100736000Y-72560000D02*
X106236000Y-72560000D01*
X106236000Y-72560000D02*
X106236000Y-72060000D01*
X96036000Y-72310000D02*
X95436000Y-72610000D01*
X100736000Y-72060000D02*
X100736000Y-72560000D01*
X106236000Y-72060000D02*
X100736000Y-72060000D01*
X95436000Y-72010000D02*
X96036000Y-72310000D01*
X100736000Y-70060000D02*
X106236000Y-70060000D01*
X106236000Y-70060000D02*
X106236000Y-69560000D01*
X106846000Y-69810000D02*
X106846000Y-74870000D01*
X106846000Y-69810000D02*
X106846000Y-64750000D01*
X100736000Y-69560000D02*
X100736000Y-70060000D01*
X106236000Y-69560000D02*
X100736000Y-69560000D01*
X100736000Y-67560000D02*
X106236000Y-67560000D01*
X106236000Y-67560000D02*
X106236000Y-67060000D01*
X100736000Y-67060000D02*
X100736000Y-67560000D01*
X106236000Y-67060000D02*
X100736000Y-67060000D01*
X95126000Y-66170000D02*
X99626000Y-66170000D01*
X99626000Y-66170000D02*
X99626000Y-69810000D01*
X95126000Y-64750000D02*
X95126000Y-66170000D01*
X106846000Y-64750000D02*
X95126000Y-64750000D01*
%TO.C,R8*%
X81764000Y-111974000D02*
X80994000Y-111974000D01*
X80994000Y-113344000D02*
X80994000Y-110604000D01*
X80994000Y-110604000D02*
X74454000Y-110604000D01*
X74454000Y-113344000D02*
X80994000Y-113344000D01*
X74454000Y-110604000D02*
X74454000Y-113344000D01*
X73684000Y-111974000D02*
X74454000Y-111974000D01*
%TO.C,C3*%
X94544000Y-82522000D02*
G75*
G03*
X94544000Y-82522000I-4120000J0D01*
G01*
%TO.C,C4*%
X94544000Y-95222000D02*
G75*
G03*
X94544000Y-95222000I-4120000J0D01*
G01*
%TO.C,STRIP3*%
X95126000Y-87650000D02*
X95126000Y-86230000D01*
X106846000Y-87650000D02*
X95126000Y-87650000D01*
X95126000Y-86230000D02*
X99626000Y-86230000D01*
X99626000Y-86230000D02*
X99626000Y-82590000D01*
X95436000Y-85390000D02*
X95436000Y-84790000D01*
X100736000Y-85340000D02*
X106236000Y-85340000D01*
X106236000Y-85340000D02*
X106236000Y-84840000D01*
X96036000Y-85090000D02*
X95436000Y-85390000D01*
X100736000Y-84840000D02*
X100736000Y-85340000D01*
X106236000Y-84840000D02*
X100736000Y-84840000D01*
X95436000Y-84790000D02*
X96036000Y-85090000D01*
X100736000Y-82840000D02*
X106236000Y-82840000D01*
X106236000Y-82840000D02*
X106236000Y-82340000D01*
X106846000Y-82590000D02*
X106846000Y-87650000D01*
X106846000Y-82590000D02*
X106846000Y-77530000D01*
X100736000Y-82340000D02*
X100736000Y-82840000D01*
X106236000Y-82340000D02*
X100736000Y-82340000D01*
X100736000Y-80340000D02*
X106236000Y-80340000D01*
X106236000Y-80340000D02*
X106236000Y-79840000D01*
X100736000Y-79840000D02*
X100736000Y-80340000D01*
X106236000Y-79840000D02*
X100736000Y-79840000D01*
X95126000Y-78950000D02*
X99626000Y-78950000D01*
X99626000Y-78950000D02*
X99626000Y-82590000D01*
X95126000Y-77530000D02*
X95126000Y-78950000D01*
X106846000Y-77530000D02*
X95126000Y-77530000D01*
%TO.C,R3*%
X81764000Y-97224000D02*
X80994000Y-97224000D01*
X80994000Y-98594000D02*
X80994000Y-95854000D01*
X80994000Y-95854000D02*
X74454000Y-95854000D01*
X74454000Y-98594000D02*
X80994000Y-98594000D01*
X74454000Y-95854000D02*
X74454000Y-98594000D01*
X73684000Y-97224000D02*
X74454000Y-97224000D01*
%TO.C,RJ1*%
X62050000Y-100752000D02*
X62550000Y-100252000D01*
X63050000Y-100752000D02*
X62050000Y-100752000D01*
X62550000Y-100252000D02*
X63050000Y-100752000D01*
X55140000Y-100057000D02*
X62750000Y-100057000D01*
X55140000Y-100057000D02*
X55140000Y-83327000D01*
X71110000Y-100057000D02*
X65550000Y-100057000D01*
X71110000Y-100057000D02*
X71110000Y-83327000D01*
X55140000Y-83327000D02*
X62750000Y-83327000D01*
X71110000Y-83327000D02*
X65550000Y-83327000D01*
%TO.C,C5*%
X94544000Y-107922000D02*
G75*
G03*
X94544000Y-107922000I-4120000J0D01*
G01*
%TO.C,STRIP8*%
X95126000Y-151110000D02*
X95126000Y-149690000D01*
X106846000Y-151110000D02*
X95126000Y-151110000D01*
X95126000Y-149690000D02*
X99626000Y-149690000D01*
X99626000Y-149690000D02*
X99626000Y-146050000D01*
X95436000Y-148850000D02*
X95436000Y-148250000D01*
X100736000Y-148800000D02*
X106236000Y-148800000D01*
X106236000Y-148800000D02*
X106236000Y-148300000D01*
X96036000Y-148550000D02*
X95436000Y-148850000D01*
X100736000Y-148300000D02*
X100736000Y-148800000D01*
X106236000Y-148300000D02*
X100736000Y-148300000D01*
X95436000Y-148250000D02*
X96036000Y-148550000D01*
X100736000Y-146300000D02*
X106236000Y-146300000D01*
X106236000Y-146300000D02*
X106236000Y-145800000D01*
X106846000Y-146050000D02*
X106846000Y-151110000D01*
X106846000Y-146050000D02*
X106846000Y-140990000D01*
X100736000Y-145800000D02*
X100736000Y-146300000D01*
X106236000Y-145800000D02*
X100736000Y-145800000D01*
X100736000Y-143800000D02*
X106236000Y-143800000D01*
X106236000Y-143800000D02*
X106236000Y-143300000D01*
X100736000Y-143300000D02*
X100736000Y-143800000D01*
X106236000Y-143300000D02*
X100736000Y-143300000D01*
X95126000Y-142410000D02*
X99626000Y-142410000D01*
X99626000Y-142410000D02*
X99626000Y-146050000D01*
X95126000Y-140990000D02*
X95126000Y-142410000D01*
X106846000Y-140990000D02*
X95126000Y-140990000D01*
%TO.C,STRIP7*%
X95126000Y-138450000D02*
X95126000Y-137030000D01*
X106846000Y-138450000D02*
X95126000Y-138450000D01*
X95126000Y-137030000D02*
X99626000Y-137030000D01*
X99626000Y-137030000D02*
X99626000Y-133390000D01*
X95436000Y-136190000D02*
X95436000Y-135590000D01*
X100736000Y-136140000D02*
X106236000Y-136140000D01*
X106236000Y-136140000D02*
X106236000Y-135640000D01*
X96036000Y-135890000D02*
X95436000Y-136190000D01*
X100736000Y-135640000D02*
X100736000Y-136140000D01*
X106236000Y-135640000D02*
X100736000Y-135640000D01*
X95436000Y-135590000D02*
X96036000Y-135890000D01*
X100736000Y-133640000D02*
X106236000Y-133640000D01*
X106236000Y-133640000D02*
X106236000Y-133140000D01*
X106846000Y-133390000D02*
X106846000Y-138450000D01*
X106846000Y-133390000D02*
X106846000Y-128330000D01*
X100736000Y-133140000D02*
X100736000Y-133640000D01*
X106236000Y-133140000D02*
X100736000Y-133140000D01*
X100736000Y-131140000D02*
X106236000Y-131140000D01*
X106236000Y-131140000D02*
X106236000Y-130640000D01*
X100736000Y-130640000D02*
X100736000Y-131140000D01*
X106236000Y-130640000D02*
X100736000Y-130640000D01*
X95126000Y-129750000D02*
X99626000Y-129750000D01*
X99626000Y-129750000D02*
X99626000Y-133390000D01*
X95126000Y-128330000D02*
X95126000Y-129750000D01*
X106846000Y-128330000D02*
X95126000Y-128330000D01*
%TO.C,STRIP1*%
X95126000Y-62250000D02*
X95126000Y-60830000D01*
X106846000Y-62250000D02*
X95126000Y-62250000D01*
X95126000Y-60830000D02*
X99626000Y-60830000D01*
X99626000Y-60830000D02*
X99626000Y-57190000D01*
X95436000Y-59990000D02*
X95436000Y-59390000D01*
X100736000Y-59940000D02*
X106236000Y-59940000D01*
X106236000Y-59940000D02*
X106236000Y-59440000D01*
X96036000Y-59690000D02*
X95436000Y-59990000D01*
X100736000Y-59440000D02*
X100736000Y-59940000D01*
X106236000Y-59440000D02*
X100736000Y-59440000D01*
X95436000Y-59390000D02*
X96036000Y-59690000D01*
X100736000Y-57440000D02*
X106236000Y-57440000D01*
X106236000Y-57440000D02*
X106236000Y-56940000D01*
X106846000Y-57190000D02*
X106846000Y-62250000D01*
X106846000Y-57190000D02*
X106846000Y-52130000D01*
X100736000Y-56940000D02*
X100736000Y-57440000D01*
X106236000Y-56940000D02*
X100736000Y-56940000D01*
X100736000Y-54940000D02*
X106236000Y-54940000D01*
X106236000Y-54940000D02*
X106236000Y-54440000D01*
X100736000Y-54440000D02*
X100736000Y-54940000D01*
X106236000Y-54440000D02*
X100736000Y-54440000D01*
X95126000Y-53550000D02*
X99626000Y-53550000D01*
X99626000Y-53550000D02*
X99626000Y-57190000D01*
X95126000Y-52130000D02*
X95126000Y-53550000D01*
X106846000Y-52130000D02*
X95126000Y-52130000D01*
%TD*%
M02*
