M48
; DRILL file {KiCad 7.0.2} date Sat May 20 11:27:27 2023
; FORMAT={-:-/ absolute / inch / decimal}
; #@! TF.CreationDate,2023-05-20T11:27:27+02:00
; #@! TF.GenerationSoftware,Kicad,Pcbnew,7.0.2
; #@! TF.FileFunction,Plated,1,2,PTH
FMAT,2
INCH
; #@! TA.AperFunction,Plated,PTH,ComponentDrill
T1C0.0315
; #@! TA.AperFunction,Plated,PTH,ComponentDrill
T2C0.0350
; #@! TA.AperFunction,Plated,PTH,ComponentDrill
T3C0.0374
; #@! TA.AperFunction,Plated,PTH,ComponentDrill
T4C0.0512
; #@! TA.AperFunction,Plated,PTH,ComponentDrill
T5C0.0618
%
G90
G05
T1
X2.86Y-3.5954
X2.86Y-3.7116
X2.86Y-3.8277
X2.86Y-3.9439
X2.86Y-4.06
X2.86Y-4.1761
X2.86Y-4.2923
X2.86Y-4.4084
X3.26Y-3.5954
X3.26Y-3.7116
X3.26Y-3.8277
X3.26Y-3.9439
X3.26Y-4.06
X3.26Y-4.1761
X3.26Y-4.2923
X3.26Y-4.4084
X3.56Y-2.1811
X3.56Y-2.3189
X3.56Y-2.68
X3.56Y-2.8178
X3.56Y-3.18
X3.56Y-3.3178
X3.56Y-3.68
X3.56Y-3.8178
X3.56Y-4.18
X3.56Y-4.3178
X3.56Y-4.6811
X3.56Y-4.8189
X3.56Y-5.1811
X3.56Y-5.3189
X3.56Y-5.68
X3.56Y-5.8178
T2
X2.4901Y-4.2899
X2.4901Y-4.3699
X2.4901Y-4.4499
X2.4901Y-4.5299
X2.4902Y-3.5101
X2.4902Y-3.5901
X2.4902Y-3.6701
X2.4902Y-3.7501
X2.5602Y-4.2499
X2.5602Y-4.3299
X2.5602Y-4.4099
X2.5602Y-4.4899
X2.5602Y-3.4701
X2.5602Y-3.5501
X2.5602Y-3.6301
X2.5602Y-3.7101
X2.7499Y-4.1197
X2.7499Y-4.2098
X2.7499Y-4.5697
X2.7499Y-4.6598
X2.75Y-3.3398
X2.75Y-3.43
X2.75Y-3.7898
X2.75Y-3.88
T3
X3.84Y-2.1531
X3.84Y-2.2516
X3.84Y-2.35
X3.84Y-2.65
X3.84Y-2.7484
X3.84Y-2.8469
X3.84Y-3.1531
X3.84Y-3.2516
X3.84Y-3.35
X3.84Y-3.6516
X3.84Y-3.75
X3.84Y-3.8484
X3.84Y-4.1531
X3.84Y-4.2516
X3.84Y-4.35
X3.84Y-4.6531
X3.84Y-4.7516
X3.84Y-4.85
X3.84Y-5.1531
X3.84Y-5.2516
X3.84Y-5.35
X3.84Y-5.6516
X3.84Y-5.75
X3.84Y-5.8484
T4
X3.0397Y-2.9116
X3.0397Y-3.1084
X3.04Y-4.89
X3.04Y-5.0869
T5
X2.5251Y-4.0697
X2.5251Y-4.7098
X2.5252Y-3.2898
X2.5252Y-3.93
T0
M30
